<svg width="136" height="33" viewBox="0 0 136 33" fill="none" xmlns="http://www.w3.org/2000/svg">
<g clip-path="url(#clip0_206_169)">
<path d="M16.1229 21.9977H4.97351L10.5482 16.5637L16.1229 21.9977Z" fill="#1D4ED8"/>
<path d="M16.1229 32.2621L27.2722 21.998H16.1229V32.2621Z" fill="#2563EB"/>
<path d="M16.1229 32.2621L4.97351 21.998H16.1229V32.2621Z" fill="#3B82F6"/>
<path d="M16.1229 21.9977H27.2722L21.6976 16.5637L16.1229 21.9977Z" fill="#1D4ED8"/>
<path d="M0.856623 14.8565C-0.134975 15.8046 -0.119554 17.3089 0.891302 18.2395L4.97355 21.9977L16.1229 11.1298V0.261963" fill="#3B82F6"/>
<path d="M31.3892 14.8565C32.3809 15.8046 32.3654 17.3089 31.3546 18.2395L27.2722 21.9977L16.1229 11.1298V0.261963" fill="#2563EB"/>
</g>
<path d="M53.7859 7.27273H57.3224V18.1357C57.3224 19.3554 57.0311 20.4226 56.4485 21.3374C55.8713 22.2521 55.0627 22.9654 54.0227 23.4773C52.9827 23.9837 51.7712 24.2369 50.3881 24.2369C48.9996 24.2369 47.7854 23.9837 46.7454 23.4773C45.7054 22.9654 44.8968 22.2521 44.3196 21.3374C43.7424 20.4226 43.4538 19.3554 43.4538 18.1357V7.27273H46.9904V17.8335C46.9904 18.4705 47.1293 19.0368 47.407 19.5323C47.6901 20.0278 48.0876 20.4171 48.5994 20.7003C49.1113 20.9834 49.7075 21.125 50.3881 21.125C51.0742 21.125 51.6705 20.9834 52.1768 20.7003C52.6887 20.4171 53.0835 20.0278 53.3612 19.5323C53.6443 19.0368 53.7859 18.4705 53.7859 17.8335V7.27273ZM70.605 15.032L67.4197 15.228C67.3652 14.9557 67.2481 14.7107 67.0684 14.4929C66.8888 14.2696 66.6519 14.0927 66.3579 13.962C66.0693 13.8259 65.7235 13.7578 65.3206 13.7578C64.7815 13.7578 64.3269 13.8722 63.9566 14.1009C63.5863 14.3241 63.4012 14.6236 63.4012 14.9993C63.4012 15.2988 63.521 15.552 63.7606 15.7589C64.0001 15.9658 64.4113 16.1319 64.9939 16.2571L67.2645 16.7145C68.4842 16.965 69.3935 17.3679 69.9925 17.9233C70.5914 18.4787 70.8909 19.2083 70.8909 20.1122C70.8909 20.9344 70.6486 21.6559 70.164 22.2766C69.6848 22.8974 69.026 23.382 68.1874 23.7305C67.3543 24.0735 66.3933 24.245 65.3042 24.245C63.6435 24.245 62.3203 23.8993 61.3348 23.2077C60.3547 22.5108 59.7802 21.5633 59.6114 20.3654L63.0336 20.1857C63.1371 20.6921 63.3876 21.0787 63.7851 21.3455C64.1826 21.6069 64.6917 21.7376 65.3124 21.7376C65.9223 21.7376 66.4123 21.6205 66.7826 21.3864C67.1583 21.1468 67.3489 20.8391 67.3543 20.4634C67.3489 20.1476 67.2155 19.889 66.9541 19.6875C66.6927 19.4806 66.2898 19.3227 65.7453 19.2138L63.5727 18.7809C62.3476 18.5359 61.4355 18.1112 60.8366 17.5067C60.243 16.9023 59.9463 16.1319 59.9463 15.1953C59.9463 14.3894 60.1641 13.6952 60.5997 13.1126C61.0407 12.5299 61.6588 12.0807 62.4537 11.7649C63.2542 11.4491 64.1907 11.2912 65.2634 11.2912C66.8479 11.2912 68.0948 11.6261 69.0042 12.2958C69.9189 12.9656 70.4526 13.8776 70.605 15.032ZM78.7992 24.245C77.5087 24.245 76.3979 23.9837 75.4668 23.4609C74.5411 22.9328 73.8278 22.1868 73.3269 21.223C72.8259 20.2538 72.5755 19.1076 72.5755 17.7844C72.5755 16.494 72.8259 15.3614 73.3269 14.3867C73.8278 13.4121 74.533 12.6525 75.4423 12.108C76.3571 11.5634 77.4297 11.2912 78.6603 11.2912C79.488 11.2912 80.2585 11.4246 80.9718 11.6914C81.6905 11.9528 82.3167 12.3475 82.8503 12.8757C83.3894 13.4039 83.8087 14.0682 84.1081 14.8686C84.4076 15.6636 84.5574 16.5947 84.5574 17.6619V18.6175H73.964V16.4613H81.2821C81.2821 15.9603 81.1732 15.5166 80.9554 15.13C80.7376 14.7434 80.4354 14.4412 80.0488 14.2234C79.6677 14.0001 79.2239 13.8885 78.7175 13.8885C78.1893 13.8885 77.7211 14.011 77.3127 14.256C76.9097 14.4956 76.5939 14.8196 76.3652 15.228C76.1365 15.6309 76.0195 16.0801 76.014 16.5756V18.6257C76.014 19.2464 76.1284 19.7828 76.3571 20.2347C76.5912 20.6867 76.9206 21.0352 77.3453 21.2802C77.7701 21.5252 78.2737 21.6477 78.8564 21.6477C79.243 21.6477 79.5969 21.5933 79.9181 21.4844C80.2394 21.3755 80.5144 21.2121 80.7431 20.9943C80.9718 20.7765 81.146 20.5097 81.2658 20.1939L84.4838 20.4062C84.3205 21.1795 83.9856 21.8546 83.4792 22.4318C82.9783 23.0036 82.3303 23.45 81.5353 23.7713C80.7458 24.0871 79.8337 24.245 78.7992 24.245ZM95.9675 12.0835C95.9022 11.4246 95.6217 10.9128 95.1262 10.5479C94.6307 10.1831 93.9583 10.0007 93.1088 10.0007C92.5317 10.0007 92.0443 10.0824 91.6468 10.2457C91.2493 10.4036 90.9444 10.6242 90.7321 10.9073C90.5252 11.1905 90.4217 11.5117 90.4217 11.8711C90.4108 12.1706 90.4734 12.4319 90.6096 12.6552C90.7511 12.8784 90.9444 13.0717 91.1895 13.2351C91.4345 13.393 91.7176 13.5318 92.0389 13.6516C92.3601 13.766 92.7032 13.864 93.068 13.9457L94.5708 14.305C95.3005 14.4684 95.9702 14.6862 96.5801 14.9585C97.1899 15.2307 97.7181 15.5656 98.1646 15.9631C98.6111 16.3606 98.9569 16.8288 99.2019 17.3679C99.4524 17.907 99.5803 18.525 99.5858 19.2219C99.5803 20.2456 99.319 21.1332 98.8017 21.8846C98.2898 22.6306 97.5493 23.2105 96.5801 23.6243C95.6163 24.0327 94.4538 24.2369 93.0925 24.2369C91.7421 24.2369 90.566 24.0299 89.5641 23.6161C88.5676 23.2023 87.789 22.5897 87.2282 21.7784C86.6728 20.9616 86.3815 19.9516 86.3542 18.7482H89.7765C89.8146 19.3091 89.9752 19.7773 90.2583 20.1531C90.5469 20.5233 90.9308 20.8037 91.41 20.9943C91.8946 21.1795 92.4418 21.272 93.0517 21.272C93.6506 21.272 94.1706 21.1849 94.6117 21.0107C95.0582 20.8364 95.4039 20.5941 95.649 20.2837C95.894 19.9734 96.0165 19.6167 96.0165 19.2138C96.0165 18.8381 95.9049 18.5223 95.6816 18.2663C95.4638 18.0104 95.1426 17.7926 94.7179 17.6129C94.2986 17.4332 93.784 17.2699 93.1742 17.1229L91.3528 16.6655C89.9425 16.3224 88.829 15.7861 88.0123 15.0565C87.1955 14.3268 86.7898 13.344 86.7953 12.108C86.7898 11.0952 87.0594 10.2103 87.6039 9.45348C88.1538 8.69661 88.908 8.10582 89.8663 7.68111C90.8246 7.25639 91.9136 7.04403 93.1333 7.04403C94.3748 7.04403 95.4584 7.25639 96.3841 7.68111C97.3152 8.10582 98.0394 8.69661 98.5566 9.45348C99.0739 10.2103 99.3407 11.087 99.3571 12.0835H95.9675ZM101.899 24V11.4545H105.379V24H101.899ZM103.647 9.83736C103.13 9.83736 102.686 9.66584 102.316 9.3228C101.951 8.97431 101.769 8.55776 101.769 8.07315C101.769 7.59399 101.951 7.18288 102.316 6.83984C102.686 6.49136 103.13 6.31712 103.647 6.31712C104.164 6.31712 104.605 6.49136 104.97 6.83984C105.341 7.18288 105.526 7.59399 105.526 8.07315C105.526 8.55776 105.341 8.97431 104.97 9.3228C104.605 9.66584 104.164 9.83736 103.647 9.83736ZM113.818 28.9659C112.691 28.9659 111.724 28.8107 110.918 28.5004C110.118 28.1954 109.481 27.7789 109.007 27.2507C108.533 26.7225 108.226 26.129 108.084 25.4702L111.302 25.0373C111.4 25.2878 111.555 25.5219 111.768 25.7397C111.98 25.9575 112.261 26.1317 112.609 26.2624C112.963 26.3986 113.393 26.4666 113.9 26.4666C114.656 26.4666 115.28 26.2815 115.77 25.9112C116.265 25.5464 116.513 24.9338 116.513 24.0735V21.7784H116.366C116.214 22.1269 115.985 22.4563 115.68 22.7667C115.375 23.0771 114.983 23.3303 114.504 23.5263C114.025 23.7223 113.453 23.8203 112.789 23.8203C111.847 23.8203 110.989 23.6025 110.216 23.1669C109.448 22.7259 108.836 22.0534 108.378 21.1495C107.926 20.2402 107.7 19.0913 107.7 17.7028C107.7 16.2816 107.932 15.0946 108.395 14.1417C108.857 13.1888 109.473 12.4755 110.24 12.0018C111.014 11.5281 111.86 11.2912 112.781 11.2912C113.483 11.2912 114.071 11.411 114.545 11.6506C115.018 11.8847 115.4 12.1787 115.688 12.5327C115.982 12.8812 116.208 13.2242 116.366 13.5618H116.497V11.4545H119.952V24.1225C119.952 25.1897 119.69 26.0827 119.168 26.8015C118.645 27.5202 117.921 28.0593 116.995 28.4187C116.075 28.7835 115.016 28.9659 113.818 28.9659ZM113.891 21.2067C114.452 21.2067 114.926 21.0678 115.312 20.7901C115.705 20.507 116.004 20.104 116.211 19.5813C116.423 19.0531 116.529 18.4215 116.529 17.6864C116.529 16.9513 116.426 16.3143 116.219 15.7752C116.012 15.2307 115.713 14.8087 115.321 14.5092C114.929 14.2098 114.452 14.06 113.891 14.06C113.32 14.06 112.838 14.2152 112.446 14.5256C112.054 14.8305 111.757 15.2552 111.555 15.7997C111.354 16.3442 111.253 16.9731 111.253 17.6864C111.253 18.4106 111.354 19.0368 111.555 19.565C111.762 20.0877 112.059 20.4934 112.446 20.782C112.838 21.0651 113.32 21.2067 113.891 21.2067ZM126.2 16.7472V24H122.721V11.4545H126.037V13.668H126.184C126.461 12.9383 126.927 12.3611 127.58 11.9364C128.234 11.5063 129.026 11.2912 129.957 11.2912C130.828 11.2912 131.588 11.4818 132.236 11.8629C132.884 12.2441 133.387 12.7886 133.747 13.4964C134.106 14.1989 134.286 15.0374 134.286 16.0121V24H130.806V16.6328C130.812 15.8651 130.616 15.2661 130.218 14.8359C129.821 14.4003 129.274 14.1825 128.577 14.1825C128.108 14.1825 127.695 14.2833 127.335 14.4847C126.981 14.6862 126.704 14.9802 126.502 15.3668C126.306 15.748 126.205 16.2081 126.2 16.7472Z" fill="white"/>
<defs>
<clipPath id="clip0_206_169">
<rect width="32" height="32" fill="white" transform="translate(0.122925 0.261963)"/>
</clipPath>
</defs>
</svg>
